<svg width="395" height="77" viewBox="0 0 395 77" fill="none" xmlns="http://www.w3.org/2000/svg">
<path d="M95.5455 62H89.6364L106.727 15.4545H112.545L129.636 62H123.727L109.818 22.8182H109.455L95.5455 62ZM97.7273 43.8182H121.545V48.8182H97.7273V43.8182ZM136.159 62V27.0909H141.341V32.3636H141.705C142.341 30.6364 143.492 29.2348 145.159 28.1591C146.826 27.0833 148.705 26.5455 150.795 26.5455C151.189 26.5455 151.682 26.553 152.273 26.5682C152.864 26.5833 153.311 26.6061 153.614 26.6364V32.0909C153.432 32.0455 153.015 31.9773 152.364 31.8864C151.727 31.7803 151.053 31.7273 150.341 31.7273C148.644 31.7273 147.129 32.0833 145.795 32.7955C144.477 33.4924 143.432 34.4621 142.659 35.7045C141.902 36.9318 141.523 38.3333 141.523 39.9091V62H136.159ZM173.091 62.7273C169.818 62.7273 167 61.9545 164.636 60.4091C162.273 58.8636 160.455 56.7348 159.182 54.0227C157.909 51.3106 157.273 48.2121 157.273 44.7273C157.273 41.1818 157.924 38.053 159.227 35.3409C160.545 32.6136 162.379 30.4848 164.727 28.9545C167.091 27.4091 169.848 26.6364 173 26.6364C175.455 26.6364 177.667 27.0909 179.636 28C181.606 28.9091 183.22 30.1818 184.477 31.8182C185.735 33.4545 186.515 35.3636 186.818 37.5455H181.455C181.045 35.9545 180.136 34.5455 178.727 33.3182C177.333 32.0758 175.455 31.4545 173.091 31.4545C171 31.4545 169.167 32 167.591 33.0909C166.03 34.1667 164.811 35.6894 163.932 37.6591C163.068 39.6136 162.636 41.9091 162.636 44.5455C162.636 47.2424 163.061 49.5909 163.909 51.5909C164.773 53.5909 165.985 55.1439 167.545 56.25C169.121 57.3561 170.97 57.9091 173.091 57.9091C174.485 57.9091 175.75 57.6667 176.886 57.1818C178.023 56.697 178.985 56 179.773 55.0909C180.561 54.1818 181.121 53.0909 181.455 51.8182H186.818C186.515 53.8788 185.765 55.7348 184.568 57.3864C183.386 59.0227 181.818 60.3258 179.864 61.2955C177.924 62.25 175.667 62.7273 173.091 62.7273ZM209.841 27.0909V31.6364H191.75V27.0909H209.841ZM197.023 18.7273H202.386V52C202.386 53.5152 202.606 54.6515 203.045 55.4091C203.5 56.1515 204.076 56.6515 204.773 56.9091C205.485 57.1515 206.235 57.2727 207.023 57.2727C207.614 57.2727 208.098 57.2424 208.477 57.1818C208.856 57.1061 209.159 57.0455 209.386 57L210.477 61.8182C210.114 61.9545 209.606 62.0909 208.955 62.2273C208.303 62.3788 207.477 62.4545 206.477 62.4545C204.962 62.4545 203.477 62.1288 202.023 61.4773C200.583 60.8258 199.386 59.8333 198.432 58.5C197.492 57.1667 197.023 55.4848 197.023 53.4545V18.7273ZM217.909 62V27.0909H223.273V62H217.909ZM220.636 21.2727C219.591 21.2727 218.689 20.9167 217.932 20.2045C217.189 19.4924 216.818 18.6364 216.818 17.6364C216.818 16.6364 217.189 15.7803 217.932 15.0682C218.689 14.3561 219.591 14 220.636 14C221.682 14 222.576 14.3561 223.318 15.0682C224.076 15.7803 224.455 16.6364 224.455 17.6364C224.455 18.6364 224.076 19.4924 223.318 20.2045C222.576 20.9167 221.682 21.2727 220.636 21.2727ZM238.46 41V62H233.097V27.0909H238.278V32.5455H238.733C239.551 30.7727 240.794 29.3485 242.46 28.2727C244.127 27.1818 246.278 26.6364 248.915 26.6364C251.278 26.6364 253.347 27.1212 255.119 28.0909C256.892 29.0455 258.271 30.5 259.256 32.4545C260.241 34.3939 260.733 36.8485 260.733 39.8182V62H255.369V40.1818C255.369 37.4394 254.657 35.303 253.233 33.7727C251.809 32.2273 249.854 31.4545 247.369 31.4545C245.657 31.4545 244.127 31.8258 242.778 32.5682C241.445 33.3106 240.392 34.3939 239.619 35.8182C238.847 37.2424 238.46 38.9697 238.46 41ZM285.17 62.7273C281.807 62.7273 278.905 61.9848 276.466 60.5C274.042 59 272.17 56.9091 270.852 54.2273C269.549 51.5303 268.898 48.3939 268.898 44.8182C268.898 41.2424 269.549 38.0909 270.852 35.3636C272.17 32.6212 274.004 30.4848 276.352 28.9545C278.716 27.4091 281.473 26.6364 284.625 26.6364C286.443 26.6364 288.239 26.9394 290.011 27.5455C291.784 28.1515 293.398 29.1364 294.852 30.5C296.307 31.8485 297.466 33.6364 298.33 35.8636C299.193 38.0909 299.625 40.8333 299.625 44.0909V46.3636H272.716V41.7273H294.17C294.17 39.7576 293.777 38 292.989 36.4545C292.216 34.9091 291.11 33.6894 289.67 32.7955C288.246 31.9015 286.564 31.4545 284.625 31.4545C282.489 31.4545 280.64 31.9848 279.08 33.0455C277.534 34.0909 276.345 35.4545 275.511 37.1364C274.678 38.8182 274.261 40.6212 274.261 42.5455V45.6364C274.261 48.2727 274.716 50.5076 275.625 52.3409C276.549 54.1591 277.83 55.5455 279.466 56.5C281.102 57.4394 283.004 57.9091 285.17 57.9091C286.58 57.9091 287.852 57.7121 288.989 57.3182C290.14 56.9091 291.133 56.303 291.966 55.5C292.799 54.6818 293.443 53.6667 293.898 52.4545L299.08 53.9091C298.534 55.6667 297.617 57.2121 296.33 58.5455C295.042 59.8636 293.451 60.8939 291.557 61.6364C289.663 62.3636 287.534 62.7273 285.17 62.7273Z" fill="white"/>
<path d="M349.693 38.7273C349.693 43.803 348.731 48.1212 346.807 51.6818C344.898 55.2424 342.292 57.9621 338.989 59.8409C335.701 61.7045 332.004 62.6364 327.898 62.6364C323.761 62.6364 320.049 61.697 316.761 59.8182C313.473 57.9394 310.875 55.2197 308.966 51.6591C307.057 48.0985 306.102 43.7879 306.102 38.7273C306.102 33.6515 307.057 29.3333 308.966 25.7727C310.875 22.2121 313.473 19.5 316.761 17.6364C320.049 15.7576 323.761 14.8182 327.898 14.8182C332.004 14.8182 335.701 15.7576 338.989 17.6364C342.292 19.5 344.898 22.2121 346.807 25.7727C348.731 29.3333 349.693 33.6515 349.693 38.7273ZM339.716 38.7273C339.716 35.4394 339.223 32.6667 338.239 30.4091C337.269 28.1515 335.898 26.4394 334.125 25.2727C332.352 24.1061 330.277 23.5227 327.898 23.5227C325.519 23.5227 323.443 24.1061 321.67 25.2727C319.898 26.4394 318.519 28.1515 317.534 30.4091C316.564 32.6667 316.08 35.4394 316.08 38.7273C316.08 42.0152 316.564 44.7879 317.534 47.0455C318.519 49.303 319.898 51.0152 321.67 52.1818C323.443 53.3485 325.519 53.9318 327.898 53.9318C330.277 53.9318 332.352 53.3485 334.125 52.1818C335.898 51.0152 337.269 49.303 338.239 47.0455C339.223 44.7879 339.716 42.0152 339.716 38.7273ZM382.233 28.8409C382.051 27.0076 381.271 25.5833 379.892 24.5682C378.513 23.553 376.642 23.0455 374.278 23.0455C372.672 23.0455 371.316 23.2727 370.21 23.7273C369.104 24.1667 368.256 24.7803 367.665 25.5682C367.089 26.3561 366.801 27.25 366.801 28.25C366.771 29.0833 366.945 29.8106 367.324 30.4318C367.718 31.053 368.256 31.5909 368.938 32.0455C369.619 32.4848 370.407 32.8712 371.301 33.2045C372.195 33.5227 373.15 33.7955 374.165 34.0227L378.347 35.0227C380.377 35.4773 382.241 36.0833 383.938 36.8409C385.634 37.5985 387.104 38.5303 388.347 39.6364C389.589 40.7424 390.551 42.0455 391.233 43.5455C391.93 45.0455 392.286 46.7652 392.301 48.7045C392.286 51.553 391.559 54.0227 390.119 56.1136C388.695 58.1894 386.634 59.803 383.938 60.9545C381.256 62.0909 378.021 62.6591 374.233 62.6591C370.475 62.6591 367.203 62.0833 364.415 60.9318C361.642 59.7803 359.475 58.0758 357.915 55.8182C356.369 53.5455 355.559 50.7348 355.483 47.3864H365.006C365.112 48.947 365.559 50.25 366.347 51.2955C367.15 52.3258 368.218 53.1061 369.551 53.6364C370.9 54.1515 372.422 54.4091 374.119 54.4091C375.786 54.4091 377.233 54.1667 378.46 53.6818C379.703 53.197 380.665 52.5227 381.347 51.6591C382.028 50.7955 382.369 49.803 382.369 48.6818C382.369 47.6364 382.059 46.7576 381.438 46.0455C380.831 45.3333 379.938 44.7273 378.756 44.2273C377.589 43.7273 376.157 43.2727 374.46 42.8636L369.392 41.5909C365.468 40.6364 362.369 39.1439 360.097 37.1136C357.824 35.0833 356.695 32.3485 356.71 28.9091C356.695 26.0909 357.445 23.6288 358.96 21.5227C360.491 19.4167 362.589 17.7727 365.256 16.5909C367.922 15.4091 370.953 14.8182 374.347 14.8182C377.801 14.8182 380.816 15.4091 383.392 16.5909C385.983 17.7727 387.998 19.4167 389.438 21.5227C390.877 23.6288 391.619 26.0682 391.665 28.8409H382.233Z" fill="#C061CB"/>
<path d="M49.275 20.9815C49.6764 21.2386 50.0867 21.483 50.4797 21.7464C56.5828 25.8384 61.635 30.6723 65.0592 35.6843C69.132 41.6469 72.0409 49.725 68.2064 56.9135C64.3718 64.102 56.1452 65.9996 49.0268 65.7478C43.6398 65.5564 37.6593 64.1444 31.6483 61.6801C31.5292 61.6312 31.4128 61.5785 31.2939 61.5293L31.2881 61.5356C30.059 61.0231 28.823 60.479 27.5977 59.8784L24.4621 58.2454C21.4308 56.562 18.5937 54.6742 15.994 52.6653L15.1673 52.0025L15.0022 51.8639L14.5489 51.3995L17.3738 45.6459L17.8717 46.0066L17.8838 46.013C19.6056 47.4699 21.4949 48.8826 23.523 50.213C23.6578 50.3015 23.7944 50.3903 23.9305 50.478C24.0757 50.5716 24.2209 50.6682 24.3675 50.761C24.5237 50.8599 24.6818 50.9588 24.8397 51.0567C25.6933 51.5862 26.5748 52.1001 27.4736 52.5992C35.1118 56.8403 42.8711 59.0969 49.2393 59.324C52.8804 59.4531 56.0448 58.919 58.4809 57.7271C60.3355 56.8189 61.7834 55.5252 62.6793 53.8465C63.1888 52.8908 63.5 51.8445 63.6252 50.7367L63.6479 50.514C63.9379 47.2865 62.6735 43.5464 60.141 39.7246L59.8923 39.3543C58.7837 37.7322 57.4364 36.1207 55.9122 34.5274L54.6775 33.3965L48.3469 20.4769L49.275 20.9815ZM56.428 32.0698L57.4151 32.9738L57.464 33.0251C59.0487 34.6817 60.4765 36.3846 61.667 38.1265C64.5096 42.2879 66.1556 46.6727 65.7928 50.7092C65.6618 52.1636 65.2696 53.5724 64.5775 54.8706L64.577 54.8711C63.4306 57.0194 61.6092 58.6049 59.4232 59.6753L59.4227 59.6758C56.573 61.0701 53.03 61.6262 49.1635 61.4891C42.3907 61.2476 34.3023 58.8658 26.4325 54.4961C25.5078 53.9826 24.5961 53.4509 23.7091 52.9007C23.5506 52.8024 23.3855 52.6993 23.2206 52.595C23.0735 52.5018 22.8666 52.3658 22.7684 52.3025C22.6266 52.211 22.4851 52.1187 22.3467 52.0279C20.8678 51.0578 19.4593 50.0425 18.1294 48.9985L17.2108 50.87L17.3191 50.9573C19.824 52.8918 22.5559 54.7097 25.4728 56.3316L28.5563 57.9381C29.444 58.3728 30.343 58.7792 31.2492 59.1685L32.1126 59.5256C32.1907 59.5578 32.266 59.5902 32.3208 59.6139C32.3812 59.64 32.4228 59.6579 32.4612 59.6737L33.0071 59.8948C38.6461 62.1455 44.1775 63.4072 49.1031 63.5822C55.9689 63.825 63.0727 61.9555 66.3086 55.8894C69.4521 49.9964 67.3605 43.1194 63.6479 37.4558L63.284 36.9115C60.9398 33.4804 57.7594 30.0985 53.9377 26.9869L56.428 32.0698ZM2.56607 18.7456C6.65614 12.617 14.3055 10.9653 20.9779 11.2014C25.4512 11.3603 30.3544 12.3663 35.3328 14.1118L35.5695 14.1959C35.9418 14.3288 36.3176 14.4647 36.6911 14.6058L37.5267 14.9465L42.0195 24.1152L41.0903 23.5846C37.8634 21.9039 34.6316 20.5864 31.5142 19.6163L30.8926 19.4264L30.2017 19.1978C29.9025 19.1132 29.6008 19.0404 29.3041 18.9624C29.1958 18.934 29.0925 18.9055 28.9854 18.8783C27.7791 18.5703 26.5923 18.3211 25.436 18.1251C25.3968 18.1184 25.3623 18.1095 25.3419 18.1071C25.3173 18.1042 25.3003 18.1007 25.3003 18.1007L25.1468 18.0769C24.6899 18.0029 24.2358 17.9402 23.7885 17.8839L23.34 17.8299C23.1206 17.805 22.901 17.7722 22.6842 17.7516C22.0314 17.6898 21.3876 17.647 20.7597 17.6247C14.3906 17.3994 9.41075 19.212 7.33125 23.1085C5.25339 27.0068 6.46753 32.2584 10.1124 37.5944C10.5611 38.251 11.0532 38.9019 11.5711 39.5532L11.9928 40.0679L11.987 40.0737L9.05233 46.0574L8.96977 46.2272L8.51807 45.7839C8.38205 45.6328 8.24427 45.4834 8.11107 45.3317C6.94041 43.9976 5.87578 42.6403 4.93972 41.2702C0.9309 35.4008 -1.94857 27.4763 1.61797 20.3727L1.79255 20.0352L2.56607 18.7456ZM20.9016 13.3659C14.4923 13.1393 7.84152 14.7637 4.37654 19.9199L3.67139 21.0958C0.456888 27.172 2.78689 34.2924 6.71443 40.043C7.24794 40.8239 7.82916 41.6044 8.45287 42.3821L9.45091 40.3472C9.06635 39.8486 8.69187 39.3404 8.33771 38.8221C4.54647 33.272 2.77082 27.0787 5.43296 22.0844L5.43348 22.0834C8.10668 17.0745 14.1961 15.2249 20.8349 15.4596C21.5068 15.4835 22.1939 15.5289 22.8867 15.5945C22.9948 15.6047 23.1458 15.6227 23.2811 15.6394L23.5819 15.677L23.5892 15.6775L23.5966 15.6786L24.0457 15.7325L24.0509 15.7336L24.0562 15.7341C24.5193 15.7925 25 15.8584 25.4896 15.9378L25.6326 15.96L25.6637 15.9648H25.6658C25.6762 15.9663 25.6858 15.9676 25.6942 15.969C25.7207 15.9733 25.7432 15.9776 25.7594 15.9806C25.7888 15.9862 25.8152 15.992 25.8214 15.9933C27.0245 16.1981 28.2576 16.4574 29.5107 16.7773L29.8478 16.8661C29.9641 16.8967 30.1187 16.9358 30.2837 16.9783L30.7848 17.1121L30.8306 17.1248L30.8758 17.1396L31.541 17.3602C33.4361 17.9262 35.3713 18.6158 37.3226 19.4311L35.9575 16.6445L35.915 16.627C35.5664 16.4955 35.2115 16.3677 34.8491 16.2382L34.8485 16.2377L34.624 16.1573C29.8089 14.4691 25.1201 13.5158 20.9016 13.3659ZM25.6321 15.9605C25.6392 15.9615 25.6461 15.9622 25.6526 15.9632C25.6503 15.9628 25.6476 15.9625 25.6453 15.9621C25.6411 15.9615 25.6367 15.9612 25.6321 15.9605ZM25.5911 15.9547C25.6057 15.9564 25.6193 15.9588 25.6321 15.9605C25.6199 15.9587 25.6059 15.9564 25.5911 15.9547Z" fill="#C061CB"/>
<path d="M23.2689 18.4379C25.2312 18.6607 27.3007 19.0608 29.4397 19.6371L9.5102 60.3239C8.21342 62.9745 10.9695 65.7866 13.567 64.4636L24.4263 58.9198C26.7354 60.1894 29.0798 61.2938 31.4179 62.2521L16.2715 69.9834C8.47643 73.9583 0.205645 65.5185 4.10118 57.564L23.2689 18.4379Z" fill="#C061CB"/>
<path d="M66.6887 60.1371C67.9577 67.1953 60.6302 73.5326 53.674 69.9834L46.1805 66.1569C47.1341 66.2584 48.0743 66.3351 48.9972 66.3678C55.1334 66.5848 62.2446 65.2133 66.6887 60.1371Z" fill="#C061CB"/>
<path d="M33.337 54.7981C35.251 54.4393 37.2488 54.7034 39.0295 55.6116L43.8362 58.0642C40.5122 57.4321 36.9558 56.3501 33.337 54.7981Z" fill="#C061CB"/>
<path d="M26.8592 11.1165C30.2018 4.29451 39.7437 4.29452 43.0862 11.1165L62.8681 51.4899C62.7135 52.2155 62.4786 52.9079 62.1359 53.5508C61.3974 54.9343 60.2435 56.0453 58.7464 56.8831L37.6772 13.8763C36.7942 12.0741 34.6169 11.7011 33.1953 12.7555C31.0351 12.095 28.8993 11.5722 26.812 11.2068L26.8592 11.1165Z" fill="#C061CB"/>
<path d="M23.2689 18.4379C25.2312 18.6607 27.3007 19.0608 29.4397 19.6371L9.5102 60.3239C8.21342 62.9745 10.9695 65.7866 13.567 64.4636L24.4263 58.9198C26.7354 60.1894 29.0798 61.2938 31.4179 62.2521L16.2715 69.9834C8.47643 73.9583 0.205645 65.5185 4.10118 57.564L23.2689 18.4379Z" fill="#C061CB"/>
<path d="M66.6887 60.1371C67.9577 67.1953 60.6302 73.5326 53.674 69.9834L46.1805 66.1569C47.1341 66.2584 48.0743 66.3351 48.9972 66.3678C55.1334 66.5848 62.2446 65.2133 66.6887 60.1371Z" fill="#C061CB"/>
<path d="M33.337 54.7981C35.251 54.4393 37.2488 54.7034 39.0295 55.6116L43.8362 58.0642C40.5122 57.4321 36.9558 56.3501 33.337 54.7981Z" fill="#C061CB"/>
<path d="M26.8592 11.1165C30.2018 4.29451 39.7437 4.29452 43.0862 11.1165L62.8681 51.4899C62.7135 52.2155 62.4786 52.9079 62.1359 53.5508C61.3974 54.9343 60.2435 56.0453 58.7464 56.8831L37.6772 13.8763C36.7942 12.0741 34.6169 11.7011 33.1953 12.7555C31.0351 12.095 28.8993 11.5722 26.812 11.2068L26.8592 11.1165Z" fill="#C061CB"/>
</svg>
