<svg width="256" height="256" viewBox="0 0 256 256" fill="none" xmlns="http://www.w3.org/2000/svg">
<path d="M170.825 74.9446C172.029 75.7159 173.26 76.4489 174.439 77.2393C192.748 89.5153 207.905 104.017 218.178 119.053C230.396 136.941 239.123 161.175 227.619 182.74C216.115 204.306 191.436 209.999 170.08 209.244C153.919 208.669 135.978 204.433 117.945 197.04C117.588 196.894 117.239 196.735 116.882 196.588L116.864 196.607C113.177 195.069 109.469 193.437 105.793 191.635L96.3864 186.736C87.2924 181.686 78.7812 176.023 70.9819 169.996L68.502 168.008L68.0067 167.592L66.6468 166.198L75.1213 148.938L76.6152 150.02L76.6515 150.039C81.8169 154.41 87.4846 158.648 93.5689 162.639C93.9734 162.904 94.3832 163.171 94.7915 163.434C95.2271 163.715 95.6626 164.005 96.1024 164.283C96.5712 164.58 97.0454 164.876 97.519 165.17C100.08 166.759 102.725 168.3 105.421 169.798C128.335 182.521 151.613 189.291 170.718 189.972C181.641 190.359 191.134 188.757 198.443 185.181C204.006 182.457 208.35 178.576 211.038 173.54C212.566 170.672 213.5 167.533 213.876 164.21L213.944 163.542C214.814 153.86 211.02 142.639 203.423 131.174L202.677 130.063C199.351 125.197 195.309 120.362 190.737 115.582L187.033 112.189L168.041 73.4307L170.825 74.9446ZM192.284 108.209L195.245 110.922L195.392 111.075C200.146 116.045 204.43 121.154 208.001 126.38C216.529 138.864 221.467 152.018 220.378 164.128C219.985 168.491 218.809 172.717 216.733 176.612L216.731 176.613C213.292 183.058 207.828 187.815 201.27 191.026L201.268 191.027C192.719 195.21 182.09 196.879 170.491 196.467C150.172 195.743 125.907 188.597 102.297 175.488C99.5234 173.948 96.7883 172.353 94.1273 170.702C93.6517 170.407 93.1566 170.098 92.6618 169.785C92.2204 169.506 91.5997 169.097 91.3052 168.907C90.8797 168.633 90.4552 168.356 90.04 168.084C85.6034 165.173 81.3779 162.128 77.3882 158.995L74.6323 164.61L74.9573 164.872C82.4719 170.675 90.6677 176.129 99.4184 180.995L108.669 185.814C111.332 187.119 114.029 188.338 116.747 189.505L119.338 190.577C119.572 190.674 119.798 190.771 119.962 190.842C120.144 190.92 120.268 190.974 120.384 191.021L122.021 191.684C138.938 198.437 155.532 202.222 170.309 202.747C190.907 203.475 212.218 197.867 221.926 179.668C231.356 161.989 225.082 141.358 213.944 124.367L212.852 122.734C205.82 112.441 196.278 102.296 184.813 92.9608L192.284 108.209ZM30.6982 68.2367C42.9684 49.8511 65.9164 44.8959 85.9337 45.6041C99.3536 46.0809 114.063 49.0989 128.999 54.3353L129.708 54.5876C130.825 54.9864 131.953 55.3942 133.073 55.8175L135.58 56.8395L149.058 84.3455L146.271 82.7538C136.59 77.7116 126.895 73.7592 117.543 70.8488L115.678 70.279L113.605 69.5935C112.708 69.3396 111.802 69.1212 110.912 68.8873C110.587 68.802 110.278 68.7164 109.956 68.635C106.337 67.711 102.777 66.9634 99.3079 66.3752C99.1903 66.3551 99.087 66.3285 99.0256 66.3213C98.952 66.3126 98.9009 66.3022 98.9009 66.3022L98.4403 66.2308C97.0696 66.0087 95.7074 65.8206 94.3656 65.6516L93.0199 65.4897C92.3619 65.415 91.703 65.3165 91.0527 65.2549C89.0943 65.0695 87.1628 64.941 85.279 64.874C66.1717 64.1983 51.2323 69.636 44.9937 81.3256C38.7602 93.0205 42.4026 108.775 53.3373 124.783C54.6832 126.753 56.1595 128.706 57.7133 130.66L58.9785 132.204L58.9611 132.221L50.157 150.172L49.9093 150.682L48.5542 149.352C48.1462 148.898 47.7328 148.45 47.3332 147.995C43.8212 143.993 40.6273 139.921 37.8192 135.811C25.7927 118.202 17.1543 94.4288 27.8539 73.118L28.3777 72.1056L30.6982 68.2367ZM85.7049 52.0978C66.4768 51.4178 46.5245 56.2912 36.1296 71.7596L34.0142 75.2874C24.3707 93.516 31.3607 114.877 43.1433 132.129C44.7438 134.472 46.4875 136.813 48.3586 139.146L51.3527 133.042C50.199 131.546 49.0756 130.021 48.0131 128.466C36.6394 111.816 31.3124 93.2362 39.2989 78.2533L39.3004 78.2501C47.32 63.2234 65.5882 57.6746 85.5046 58.3788C87.5205 58.4505 89.5817 58.5867 91.6601 58.7834C91.9845 58.8142 92.4374 58.8681 92.8432 58.9183L93.7456 59.031L93.7677 59.0326L93.7898 59.0358L95.137 59.1976L95.1527 59.2008L95.1685 59.2024C96.558 59.3774 98 59.5753 99.4688 59.8134L99.8979 59.88L99.991 59.8943H99.9973C100.029 59.899 100.057 59.9029 100.083 59.907C100.162 59.9199 100.23 59.9327 100.278 59.9419C100.366 59.9587 100.446 59.9761 100.464 59.98C104.073 60.5942 107.773 61.3723 111.532 62.3318L112.543 62.5984C112.892 62.6901 113.356 62.8075 113.851 62.9348L115.355 63.3363L115.492 63.3744L115.627 63.4188L117.623 64.0806C123.308 65.7785 129.114 67.8475 134.968 70.2933L130.873 61.9335L130.745 61.8811C129.699 61.4866 128.635 61.103 127.547 60.7147L127.546 60.7131L126.872 60.4719C112.427 55.4072 98.3603 52.5474 85.7049 52.0978ZM99.8964 59.8816C99.9177 59.8845 99.9383 59.8867 99.9579 59.8895C99.9508 59.8884 99.9429 59.8875 99.9358 59.8863C99.9232 59.8844 99.9101 59.8836 99.8964 59.8816ZM99.7733 59.8641C99.817 59.8692 99.8579 59.8764 99.8964 59.8816C99.8597 59.8762 99.8176 59.8693 99.7733 59.8641Z" fill="#C061CB"/>
<path d="M92.8068 67.3137C98.6937 67.9821 104.902 69.1824 111.319 70.9112L51.5306 192.972C47.6402 200.924 55.9084 209.36 63.7009 205.391L96.279 188.759C103.206 192.568 110.239 195.881 117.254 198.756L71.8144 221.95C48.4293 233.875 23.6169 208.556 35.3036 184.692L92.8068 67.3137Z" fill="#C061CB"/>
<path d="M223.066 192.411C226.873 213.586 204.891 232.598 184.022 221.95L161.541 210.471C164.402 210.775 167.223 211.005 169.992 211.103C188.4 211.754 209.734 207.64 223.066 192.411Z" fill="#C061CB"/>
<path d="M123.011 176.394C128.753 175.318 134.746 176.11 140.088 178.835L154.509 186.192C144.537 184.296 133.867 181.05 123.011 176.394Z" fill="#C061CB"/>
<path d="M103.578 45.3494C113.605 24.8835 142.231 24.8835 152.259 45.3494L211.604 166.47C211.141 168.646 210.436 170.724 209.408 172.652C207.192 176.803 203.73 180.136 199.239 182.649L136.032 53.6289C133.383 48.2224 126.851 47.1034 122.586 50.2665C116.105 48.2849 109.698 46.7167 103.436 45.6205L103.578 45.3494Z" fill="#C061CB"/>
<path d="M92.8068 67.3137C98.6937 67.9821 104.902 69.1824 111.319 70.9112L51.5306 192.972C47.6402 200.924 55.9084 209.36 63.7009 205.391L96.279 188.759C103.206 192.568 110.239 195.881 117.254 198.756L71.8144 221.95C48.4293 233.875 23.6169 208.556 35.3036 184.692L92.8068 67.3137Z" fill="#C061CB"/>
<path d="M223.066 192.411C226.873 213.586 204.891 232.598 184.022 221.95L161.541 210.471C164.402 210.775 167.223 211.005 169.992 211.103C188.4 211.754 209.734 207.64 223.066 192.411Z" fill="#C061CB"/>
<path d="M123.011 176.394C128.753 175.318 134.746 176.11 140.088 178.835L154.509 186.192C144.537 184.296 133.867 181.05 123.011 176.394Z" fill="#C061CB"/>
<path d="M103.578 45.3494C113.605 24.8835 142.231 24.8835 152.259 45.3494L211.604 166.47C211.141 168.646 210.436 170.724 209.408 172.652C207.192 176.803 203.73 180.136 199.239 182.649L136.032 53.6289C133.383 48.2224 126.851 47.1034 122.586 50.2665C116.105 48.2849 109.698 46.7167 103.436 45.6205L103.578 45.3494Z" fill="#C061CB"/>
</svg>
